# Blender 4.5.2 LTS
# www.blender.org
mtllib car village.mtl
o Plane
v 498.806061 157.711151 -6.367035
v -348.649353 71.577385 -6.367004
v 363.389923 157.711151 -6.367035
v 130.828705 54.350624 -6.367012
v -644.375366 -51.881027 -6.367004
v 498.806061 -0.774975 -6.367035
v -348.649353 -86.908737 -6.367004
v 363.389923 -0.774975 -6.367035
v 130.828705 -104.135498 -6.367012
v -644.375366 -210.367172 -6.367004
vn -0.0000 -0.0000 -1.0000
vt 0.000000 0.000000
s 0
f 2/1/1 4/1/1 9/1/1 7/1/1
f 3/1/1 1/1/1 6/1/1 8/1/1
f 4/1/1 3/1/1 8/1/1 9/1/1
f 5/1/1 2/1/1 7/1/1 10/1/1
o MeshCollider_of_Plane
v 0.000000 1.000000 1.000000
v -0.000000 -0.272135 -11.516314
v 0.000000 1.000000 -1.000000
v -0.000000 -0.526562 -4.434763
v -0.000000 -2.095528 -15.883976
v -0.000000 -1.340728 1.000000
v -0.000000 -2.612862 -11.516314
v -0.000000 -1.340728 -1.000000
v -0.000000 -2.867289 -4.434763
v -0.000000 -4.436255 -15.883976
vn 1.0000 -0.0000 -0.0000
vt 0.000000 0.000000
s 0
f 12/2/2 14/2/2 19/2/2 17/2/2
f 13/2/2 11/2/2 16/2/2 18/2/2
f 14/2/2 13/2/2 18/2/2 19/2/2
f 15/2/2 12/2/2 17/2/2 20/2/2
