# Blender 4.5.2 LTS
# www.blender.org
mtllib car village.mtl
o Map
v -3359.203369 -984.907898 -0.001623
v -1848.042969 -322.625305 -0.001623
v -2488.643555 -701.072571 -0.001623
v -3030.690186 -582.807861 -0.001623
v -1289.570679 65.282837 -0.001623
v -501.139160 -842.990234 -0.001623
v 123.035889 -984.907898 -0.001623
v 763.636475 -275.319641 -0.001623
v 1749.176025 -984.907898 -0.001623
v 3178.208252 -984.907898 -0.001623
v 4410.132812 -984.907898 -0.001623
v -3359.203369 -2363.009766 -0.001623
v -1848.042969 -1700.727051 -0.001623
v -2488.643555 -2079.174316 -0.001623
v -3030.690186 -1960.909668 -0.001623
v -1289.570679 -1312.818970 -0.001623
v -501.139160 -2221.092041 -0.001623
v 123.035889 -2363.009766 -0.001623
v 763.636475 -1653.421387 -0.001623
v 1749.176025 -2363.009766 -0.001623
v 3178.208252 -2363.009766 -0.001623
v 4410.132812 -2363.009766 -0.001623
vn -0.0000 -0.0000 1.0000
vt 0.000000 0.000000
s 0
usemtl Material
f 7/1/1 6/1/1 17/1/1 18/1/1
f 4/1/1 1/1/1 12/1/1 15/1/1
f 11/1/1 10/1/1 21/1/1 22/1/1
f 8/1/1 7/1/1 18/1/1 19/1/1
f 5/1/1 2/1/1 13/1/1 16/1/1
f 2/1/1 3/1/1 14/1/1 13/1/1
f 9/1/1 8/1/1 19/1/1 20/1/1
f 6/1/1 5/1/1 16/1/1 17/1/1
f 3/1/1 4/1/1 15/1/1 14/1/1
f 10/1/1 9/1/1 20/1/1 21/1/1
o Cube
v -8.301157 -1.000000 1.000000
v -8.301157 1.000000 1.000000
v -8.301157 -1.000000 -1.000000
v -8.301157 1.000000 -1.000000
v -6.301157 -1.000000 1.000000
v -6.301157 1.000000 1.000000
v -6.301157 -1.000000 -1.000000
v -6.301157 1.000000 -1.000000
vn -1.0000 -0.0000 -0.0000
vn -0.0000 -0.0000 -1.0000
vn 1.0000 -0.0000 -0.0000
vn -0.0000 -0.0000 1.0000
vn -0.0000 -1.0000 -0.0000
vn -0.0000 1.0000 -0.0000
vt 0.375000 0.000000
vt 0.625000 0.000000
vt 0.625000 0.250000
vt 0.375000 0.250000
vt 0.625000 0.500000
vt 0.375000 0.500000
vt 0.625000 0.750000
vt 0.375000 0.750000
vt 0.625000 1.000000
vt 0.375000 1.000000
vt 0.125000 0.500000
vt 0.125000 0.750000
vt 0.875000 0.500000
vt 0.875000 0.750000
s 0
f 23/2/2 24/3/2 26/4/2 25/5/2
f 25/5/3 26/4/3 30/6/3 29/7/3
f 29/7/4 30/6/4 28/8/4 27/9/4
f 27/9/5 28/8/5 24/10/5 23/11/5
f 25/12/6 29/7/6 27/9/6 23/13/6
f 30/6/7 26/14/7 24/15/7 28/8/7
o BoxCollider_of_Cube
v -8.301157 -1.000000 1.000000
v -8.301157 1.000000 1.000000
v -8.301157 -1.000000 -1.000000
v -8.301157 1.000000 -1.000000
v -6.301157 -1.000000 1.000000
v -6.301157 1.000000 1.000000
v -6.301157 -1.000000 -1.000000
v -6.301157 1.000000 -1.000000
vn -1.0000 -0.0000 -0.0000
vn -0.0000 -0.0000 -1.0000
vn 1.0000 -0.0000 -0.0000
vn -0.0000 -0.0000 1.0000
vn -0.0000 -1.0000 -0.0000
vn -0.0000 1.0000 -0.0000
vt 0.375000 0.000000
vt 0.625000 0.000000
vt 0.625000 0.250000
vt 0.375000 0.250000
vt 0.625000 0.500000
vt 0.375000 0.500000
vt 0.625000 0.750000
vt 0.375000 0.750000
vt 0.625000 1.000000
vt 0.375000 1.000000
vt 0.125000 0.500000
vt 0.125000 0.750000
vt 0.875000 0.500000
vt 0.875000 0.750000
s 0
f 31/16/8 32/17/8 34/18/8 33/19/8
f 33/19/9 34/18/9 38/20/9 37/21/9
f 37/21/10 38/20/10 36/22/10 35/23/10
f 35/23/11 36/22/11 32/24/11 31/25/11
f 33/26/12 37/21/12 35/23/12 31/27/12
f 38/20/13 34/28/13 32/29/13 36/22/13
o MeshCollider_of_Map
v -3359.203369 -984.907898 -0.001623
v -1848.042969 -322.625305 -0.001623
v -2488.643555 -701.072571 -0.001623
v -3030.690186 -582.807861 -0.001623
v -1289.570679 65.282837 -0.001623
v -501.139160 -842.990234 -0.001623
v 123.035889 -984.907898 -0.001623
v 763.636475 -275.319641 -0.001623
v 1749.176025 -984.907898 -0.001623
v 3178.208252 -984.907898 -0.001623
v 4410.132812 -984.907898 -0.001623
v -3359.203369 -2363.009766 -0.001623
v -1848.042969 -1700.727051 -0.001623
v -2488.643555 -2079.174316 -0.001623
v -3030.690186 -1960.909668 -0.001623
v -1289.570679 -1312.818970 -0.001623
v -501.139160 -2221.092041 -0.001623
v 123.035889 -2363.009766 -0.001623
v 763.636475 -1653.421387 -0.001623
v 1749.176025 -2363.009766 -0.001623
v 3178.208252 -2363.009766 -0.001623
v 4410.132812 -2363.009766 -0.001623
vn -0.0000 -0.0000 1.0000
vt 0.000000 0.000000
s 0
usemtl Material
f 45/30/14 44/30/14 55/30/14 56/30/14
f 42/30/14 39/30/14 50/30/14 53/30/14
f 49/30/14 48/30/14 59/30/14 60/30/14
f 46/30/14 45/30/14 56/30/14 57/30/14
f 43/30/14 40/30/14 51/30/14 54/30/14
f 40/30/14 41/30/14 52/30/14 51/30/14
f 47/30/14 46/30/14 57/30/14 58/30/14
f 44/30/14 43/30/14 54/30/14 55/30/14
f 41/30/14 42/30/14 53/30/14 52/30/14
f 48/30/14 47/30/14 58/30/14 59/30/14
o ze_Background
v 4000.000000 -270.538574 -66.333710
v -2000.000000 -270.538574 -66.333710
v 1536.022705 12850.822266 -167.332367
v 4041.520020 9016.654297 -167.332855
v 1340.662598 -270.538574 -66.333710
v 7340.662598 -270.538574 -66.333710
vn -0.0000 0.0077 1.0000
vn -0.0000 0.0109 0.9999
vt 0.435646 0.260934
vt 0.431960 0.283072
vt 0.425513 0.261041
s 0
usemtl Material
f 61/31/15 63/32/15 62/33/15
f 66/31/16 64/32/16 65/33/16
