# Blender 4.5.2 LTS
# www.blender.org
mtllib test dimensions.mtl
o Text
v 45.000000 0.000000 -59.400005
v 1.600000 0.000000 0.000000
v 63.100006 0.000000 0.000000
v 63.100006 0.000000 -8.800001
v 19.700001 0.000000 -8.800001
v 63.100006 0.000000 -68.200005
v 4.300000 0.000000 -68.200005
v 4.300000 0.000000 -59.400005
vn -0.0000 1.0000 -0.0000
vt 0.110676 0.822785
s 0
usemtl Material.001
f 8/1/1 6/1/1 7/1/1
f 8/1/1 1/1/1 6/1/1
f 1/1/1 5/1/1 6/1/1
f 2/1/1 5/1/1 1/1/1
f 2/1/1 4/1/1 5/1/1
f 2/1/1 3/1/1 4/1/1
o Text.001
v 115.800003 59.400005 0.000003
v 72.399994 0.000000 0.000000
v 133.899994 0.000000 0.000000
v 133.899994 8.800001 0.000000
v 90.500000 8.800001 0.000000
v 133.899994 68.200005 0.000003
v 75.099998 68.200005 0.000003
v 75.099998 59.400005 0.000003
v 68.700005 68.200005 0.000003
v 56.900002 68.200005 0.000003
v 35.600002 42.200001 0.000002
v 14.200001 68.200005 0.000003
v 2.300000 68.200005 0.000003
v 29.600000 35.300003 0.000002
v 0.200000 0.000000 0.000000
v 12.100000 0.000000 0.000000
v 35.600002 28.200001 0.000001
v 58.799999 0.000000 0.000000
v 70.600006 0.000000 0.000000
v 41.500004 35.300003 0.000002
vn -0.0000 -0.0000 1.0000
vt 0.087648 0.083711
s 0
usemtl Material.001
f 16/2/2 14/2/2 15/2/2
f 16/2/2 9/2/2 14/2/2
f 9/2/2 13/2/2 14/2/2
f 10/2/2 13/2/2 9/2/2
f 10/2/2 12/2/2 13/2/2
f 10/2/2 11/2/2 12/2/2
f 22/2/2 20/2/2 21/2/2
f 22/2/2 19/2/2 20/2/2
f 19/2/2 17/2/2 18/2/2
f 19/2/2 28/2/2 17/2/2
f 22/2/2 28/2/2 19/2/2
f 23/2/2 28/2/2 22/2/2
f 23/2/2 25/2/2 28/2/2
f 25/2/2 27/2/2 28/2/2
f 23/2/2 24/2/2 25/2/2
f 26/2/2 27/2/2 25/2/2
o Text.002
v -0.000010 59.400005 -297.000031
v -0.000011 0.000000 -253.600021
v -0.000014 0.000000 -315.100037
v -0.000013 8.800001 -315.100037
v -0.000011 8.800001 -271.700012
v -0.000011 68.200005 -315.100037
v -0.000008 68.200005 -256.300018
v -0.000009 59.400005 -256.300018
v -0.000008 44.700005 -221.700027
v -0.000006 68.200005 -203.400009
v -0.000005 68.200005 -191.600006
v -0.000008 36.100002 -216.900009
v -0.000009 0.000000 -216.900009
v -0.000010 0.000000 -226.700012
v -0.000008 36.000000 -226.700012
v -0.000008 68.200005 -252.000015
v -0.000008 68.200005 -240.200012
v -0.000005 54.200005 -175.000015
v -0.000005 37.900002 -158.300003
v -0.000005 36.900002 -158.300003
v -0.000006 36.900002 -166.100006
v -0.000007 13.200000 -166.100006
v -0.000007 11.221006 -166.202026
v -0.000007 9.343055 -166.507874
v -0.000007 7.579687 -167.017197
v -0.000007 5.944444 -167.729645
v -0.000007 4.450867 -168.644852
v -0.000007 3.112499 -169.762497
v -0.000007 1.942880 -171.082230
v -0.000008 0.955554 -172.603699
v -0.000008 0.164060 -174.326569
v -0.000008 -0.418058 -176.250458
v -0.000008 -0.777260 -178.375061
v -0.000008 -0.900000 -180.699997
v -0.000008 -0.873438 -181.462509
v -0.000008 -0.795833 -182.291672
v -0.000008 -0.670313 -183.175003
v -0.000008 -0.500000 -184.100006
v -0.000008 -0.288021 -185.054169
v -0.000008 -0.037500 -186.024994
v -0.000008 0.248437 -187.000000
v -0.000008 0.566667 -187.966675
v -0.000008 0.914062 -188.912506
v -0.000008 1.287500 -189.824997
v -0.000008 1.683854 -190.691666
v -0.000008 2.100000 -191.500015
v -0.000008 10.400001 -191.500015
v -0.000008 9.872917 -190.606140
v -0.000008 9.391667 -189.724075
v -0.000008 8.956250 -188.853119
v -0.000008 8.566668 -187.992584
v -0.000008 8.222918 -187.141769
v -0.000008 7.925001 -186.299988
v -0.000008 7.672918 -185.466537
v -0.000008 7.466668 -184.640732
v -0.000008 7.306251 -183.821869
v -0.000008 7.191668 -183.009262
v -0.000008 7.122918 -182.202194
v -0.000008 7.100000 -181.400009
v -0.000008 7.132582 -180.727905
v -0.000008 7.235649 -180.023163
v -0.000008 7.417188 -179.303146
v -0.000007 7.685185 -178.585205
v -0.000007 8.047627 -177.886719
v -0.000007 8.512501 -177.225021
v -0.000007 9.087790 -176.617493
v -0.000007 9.781483 -176.081497
v -0.000007 10.601563 -175.634384
v -0.000007 11.556021 -175.293533
v -0.000007 12.652838 -175.076279
v -0.000007 13.900002 -175.000015
v -0.000006 36.900002 -175.000015
v -0.000007 36.900002 -189.200012
v -0.000006 44.900002 -189.200012
v -0.000006 44.900002 -175.000015
v -0.000005 44.900002 -157.000000
v -0.000004 44.900002 -145.600006
v -0.000005 29.500002 -132.800003
v -0.000003 44.900002 -119.500008
v -0.000003 44.900002 -108.300003
v -0.000005 22.800001 -127.200005
v -0.000005 0.000000 -108.300003
v -0.000005 0.000000 -119.500008
v -0.000005 16.100002 -132.800003
v -0.000006 0.000000 -146.900009
v -0.000007 0.000000 -158.300003
v -0.000005 22.800001 -138.500015
v -0.000004 13.000001 -104.200005
v -0.000004 12.179515 -102.901855
v -0.000004 11.419445 -101.606476
v -0.000004 10.721876 -100.312492
v -0.000004 10.088889 -99.018517
v -0.000004 9.522570 -97.723145
v -0.000004 9.025000 -96.424995
v -0.000004 8.598264 -95.122681
v -0.000004 8.244445 -93.814812
v -0.000004 7.965625 -92.500000
v -0.000004 7.763889 -91.176857
v -0.000004 7.641319 -89.843987
v -0.000004 7.600000 -88.500008
v -0.000003 7.695660 -86.423042
v -0.000003 7.981945 -84.492599
v -0.000003 8.457812 -82.709381
v -0.000003 9.122223 -81.074081
v -0.000003 9.974133 -79.587395
v -0.000003 11.012501 -78.250008
v -0.000003 12.236285 -77.062622
v -0.000003 13.644445 -76.025932
v -0.000003 15.235938 -75.140633
v -0.000003 17.009724 -74.407417
v -0.000002 18.964758 -73.826973
v -0.000002 21.100000 -73.400002
v -0.000004 21.100000 -105.000008
v -0.000003 25.073151 -104.843582
v -0.000003 28.693521 -104.381943
v -0.000003 31.962502 -103.626564
v -0.000003 34.881485 -102.588890
v -0.000003 37.451855 -101.280380
v -0.000003 39.675003 -99.712494
v -0.000002 41.552319 -97.896698
v -0.000002 43.085186 -95.844437
v -0.000002 44.275005 -93.567184
v -0.000002 45.123150 -91.076378
v -0.000002 45.631020 -88.383499
v -0.000002 45.800003 -85.500000
v -0.000002 45.611115 -82.481941
v -0.000002 45.055557 -79.638893
v -0.000001 44.150002 -76.987503
v -0.000001 42.911114 -74.544449
v -0.000001 41.355556 -72.326393
v -0.000001 39.500000 -70.350006
v -0.000001 37.361111 -68.631950
v -0.000001 34.955555 -67.188889
v -0.000001 32.299999 -66.037498
v -0.000002 29.411110 -65.194443
v -0.000002 26.305553 -64.676392
v -0.000002 23.000000 -64.500008
v -0.000002 19.924885 -64.661583
v -0.000002 16.924074 -65.142601
v -0.000002 14.034375 -65.937508
v -0.000002 11.292593 -67.040749
v -0.000003 8.735533 -68.446770
v -0.000003 6.400001 -70.150009
v -0.000003 4.322802 -72.144913
v -0.000003 2.540742 -74.425926
v -0.000003 1.090627 -76.987503
v -0.000003 0.009261 -79.824081
v -0.000004 -0.666549 -82.930092
v -0.000004 -0.900000 -86.300003
v -0.000004 -0.864468 -88.145607
v -0.000004 -0.757407 -89.889816
v -0.000004 -0.578125 -91.543755
v -0.000004 -0.325926 -93.118515
v -0.000004 -0.000116 -94.625237
v -0.000004 0.400000 -96.075005
v -0.000004 0.875116 -97.478935
v -0.000004 1.425926 -98.848152
v -0.000004 2.053125 -100.193748
v -0.000004 2.757408 -101.526855
v -0.000004 3.539468 -102.858566
v -0.000004 4.400001 -104.200005
v -0.000002 27.000002 -73.600006
v -0.000002 28.709898 -73.960304
v -0.000002 30.287500 -74.440742
v -0.000002 31.729689 -75.040627
v -0.000002 33.033337 -75.759262
v -0.000002 34.195316 -76.595947
v -0.000002 35.212505 -77.550003
v -0.000002 36.081776 -78.620720
v -0.000002 36.800007 -79.807411
v -0.000002 37.364067 -81.109383
v -0.000002 37.770840 -82.525932
v -0.000002 38.017197 -84.056374
v -0.000002 38.100002 -85.700005
v -0.000002 38.011459 -87.224312
v -0.000002 37.750000 -88.644447
v -0.000002 37.321873 -89.956253
v -0.000002 36.733334 -91.155556
v -0.000002 35.990623 -92.238197
v -0.000003 35.099998 -93.200005
v -0.000003 34.067707 -94.036812
v -0.000003 32.899998 -94.744453
v -0.000003 31.603123 -95.318756
v -0.000003 30.183331 -95.755562
v -0.000003 28.646872 -96.050697
v -0.000003 27.000002 -96.200005
v 0.000000 68.200005 -58.700001
v 0.000003 68.200005 -1.700000
v 0.000003 59.400005 -1.700000
v 0.000001 59.400005 -25.300003
v -0.000001 0.000000 -25.300003
v -0.000002 0.000000 -35.100002
v 0.000001 59.400005 -35.100002
v 0.000000 59.400005 -58.700001
vn 1.0000 -0.0000 -0.0000
vt 0.732529 0.099213
s 0
usemtl Material.001
f 36/3/3 34/3/3 35/3/3
f 36/3/3 29/3/3 34/3/3
f 29/3/3 33/3/3 34/3/3
f 30/3/3 33/3/3 29/3/3
f 30/3/3 32/3/3 33/3/3
f 30/3/3 31/3/3 32/3/3
f 40/3/3 38/3/3 39/3/3
f 40/3/3 37/3/3 38/3/3
f 37/3/3 44/3/3 45/3/3
f 37/3/3 43/3/3 44/3/3
f 40/3/3 43/3/3 37/3/3
f 41/3/3 43/3/3 40/3/3
f 41/3/3 42/3/3 43/3/3
f 47/3/3 103/3/3 46/3/3
f 47/3/3 102/3/3 103/3/3
f 47/3/3 101/3/3 102/3/3
f 48/3/3 101/3/3 47/3/3
f 49/3/3 101/3/3 48/3/3
f 50/3/3 100/3/3 49/3/3
f 100/3/3 101/3/3 49/3/3
f 50/3/3 99/3/3 100/3/3
f 50/3/3 98/3/3 99/3/3
f 51/3/3 98/3/3 50/3/3
f 51/3/3 97/3/3 98/3/3
f 51/3/3 96/3/3 97/3/3
f 52/3/3 96/3/3 51/3/3
f 52/3/3 95/3/3 96/3/3
f 76/3/3 74/3/3 75/3/3
f 77/3/3 74/3/3 76/3/3
f 52/3/3 94/3/3 95/3/3
f 78/3/3 74/3/3 77/3/3
f 53/3/3 94/3/3 52/3/3
f 53/3/3 93/3/3 94/3/3
f 79/3/3 74/3/3 78/3/3
f 80/3/3 74/3/3 79/3/3
f 53/3/3 92/3/3 93/3/3
f 81/3/3 74/3/3 80/3/3
f 53/3/3 91/3/3 92/3/3
f 82/3/3 74/3/3 81/3/3
f 53/3/3 90/3/3 91/3/3
f 83/3/3 74/3/3 82/3/3
f 54/3/3 90/3/3 53/3/3
f 84/3/3 74/3/3 83/3/3
f 54/3/3 89/3/3 90/3/3
f 85/3/3 74/3/3 84/3/3
f 54/3/3 88/3/3 89/3/3
f 86/3/3 74/3/3 85/3/3
f 54/3/3 87/3/3 88/3/3
f 87/3/3 74/3/3 86/3/3
f 54/3/3 74/3/3 87/3/3
f 55/3/3 74/3/3 54/3/3
f 56/3/3 74/3/3 55/3/3
f 57/3/3 74/3/3 56/3/3
f 57/3/3 73/3/3 74/3/3
f 58/3/3 73/3/3 57/3/3
f 58/3/3 72/3/3 73/3/3
f 58/3/3 71/3/3 72/3/3
f 59/3/3 71/3/3 58/3/3
f 59/3/3 70/3/3 71/3/3
f 59/3/3 69/3/3 70/3/3
f 59/3/3 68/3/3 69/3/3
f 60/3/3 68/3/3 59/3/3
f 60/3/3 67/3/3 68/3/3
f 60/3/3 66/3/3 67/3/3
f 61/3/3 66/3/3 60/3/3
f 61/3/3 65/3/3 66/3/3
f 61/3/3 64/3/3 65/3/3
f 62/3/3 64/3/3 61/3/3
f 62/3/3 63/3/3 64/3/3
f 109/3/3 107/3/3 108/3/3
f 109/3/3 106/3/3 107/3/3
f 106/3/3 104/3/3 105/3/3
f 106/3/3 115/3/3 104/3/3
f 109/3/3 115/3/3 106/3/3
f 110/3/3 115/3/3 109/3/3
f 110/3/3 112/3/3 115/3/3
f 112/3/3 114/3/3 115/3/3
f 110/3/3 111/3/3 112/3/3
f 113/3/3 114/3/3 112/3/3
f 154/3/3 152/3/3 153/3/3
f 154/3/3 151/3/3 152/3/3
f 155/3/3 151/3/3 154/3/3
f 155/3/3 150/3/3 151/3/3
f 156/3/3 150/3/3 155/3/3
f 156/3/3 149/3/3 150/3/3
f 157/3/3 149/3/3 156/3/3
f 157/3/3 148/3/3 149/3/3
f 158/3/3 148/3/3 157/3/3
f 158/3/3 147/3/3 148/3/3
f 159/3/3 147/3/3 158/3/3
f 159/3/3 146/3/3 147/3/3
f 160/3/3 202/3/3 159/3/3
f 202/3/3 146/3/3 159/3/3
f 160/3/3 201/3/3 202/3/3
f 203/3/3 146/3/3 202/3/3
f 160/3/3 200/3/3 201/3/3
f 204/3/3 146/3/3 203/3/3
f 160/3/3 199/3/3 200/3/3
f 205/3/3 146/3/3 204/3/3
f 205/3/3 145/3/3 146/3/3
f 160/3/3 198/3/3 199/3/3
f 161/3/3 198/3/3 160/3/3
f 206/3/3 145/3/3 205/3/3
f 161/3/3 197/3/3 198/3/3
f 207/3/3 145/3/3 206/3/3
f 161/3/3 196/3/3 197/3/3
f 208/3/3 145/3/3 207/3/3
f 161/3/3 195/3/3 196/3/3
f 209/3/3 145/3/3 208/3/3
f 162/3/3 195/3/3 161/3/3
f 209/3/3 144/3/3 145/3/3
f 162/3/3 194/3/3 195/3/3
f 210/3/3 144/3/3 209/3/3
f 162/3/3 193/3/3 194/3/3
f 211/3/3 144/3/3 210/3/3
f 163/3/3 193/3/3 162/3/3
f 211/3/3 143/3/3 144/3/3
f 163/3/3 192/3/3 193/3/3
f 212/3/3 143/3/3 211/3/3
f 163/3/3 191/3/3 192/3/3
f 213/3/3 143/3/3 212/3/3
f 164/3/3 191/3/3 163/3/3
f 164/3/3 190/3/3 191/3/3
f 213/3/3 142/3/3 143/3/3
f 214/3/3 142/3/3 213/3/3
f 164/3/3 214/3/3 190/3/3
f 164/3/3 142/3/3 214/3/3
f 165/3/3 142/3/3 164/3/3
f 165/3/3 141/3/3 142/3/3
f 166/3/3 140/3/3 165/3/3
f 140/3/3 141/3/3 165/3/3
f 166/3/3 139/3/3 140/3/3
f 167/3/3 139/3/3 166/3/3
f 167/3/3 138/3/3 139/3/3
f 167/3/3 137/3/3 138/3/3
f 168/3/3 137/3/3 167/3/3
f 168/3/3 136/3/3 137/3/3
f 169/3/3 136/3/3 168/3/3
f 169/3/3 135/3/3 136/3/3
f 117/3/3 189/3/3 116/3/3
f 169/3/3 134/3/3 135/3/3
f 118/3/3 189/3/3 117/3/3
f 119/3/3 189/3/3 118/3/3
f 170/3/3 134/3/3 169/3/3
f 170/3/3 133/3/3 134/3/3
f 120/3/3 189/3/3 119/3/3
f 121/3/3 189/3/3 120/3/3
f 170/3/3 132/3/3 133/3/3
f 122/3/3 189/3/3 121/3/3
f 170/3/3 131/3/3 132/3/3
f 123/3/3 189/3/3 122/3/3
f 171/3/3 131/3/3 170/3/3
f 124/3/3 189/3/3 123/3/3
f 171/3/3 130/3/3 131/3/3
f 125/3/3 189/3/3 124/3/3
f 171/3/3 129/3/3 130/3/3
f 126/3/3 189/3/3 125/3/3
f 127/3/3 189/3/3 126/3/3
f 171/3/3 128/3/3 129/3/3
f 128/3/3 189/3/3 127/3/3
f 171/3/3 189/3/3 128/3/3
f 172/3/3 189/3/3 171/3/3
f 172/3/3 188/3/3 189/3/3
f 173/3/3 188/3/3 172/3/3
f 173/3/3 187/3/3 188/3/3
f 173/3/3 186/3/3 187/3/3
f 174/3/3 186/3/3 173/3/3
f 174/3/3 185/3/3 186/3/3
f 174/3/3 184/3/3 185/3/3
f 175/3/3 184/3/3 174/3/3
f 175/3/3 183/3/3 184/3/3
f 175/3/3 182/3/3 183/3/3
f 176/3/3 182/3/3 175/3/3
f 176/3/3 181/3/3 182/3/3
f 176/3/3 180/3/3 181/3/3
f 176/3/3 179/3/3 180/3/3
f 177/3/3 179/3/3 176/3/3
f 177/3/3 178/3/3 179/3/3
f 217/3/3 215/3/3 216/3/3
f 217/3/3 222/3/3 215/3/3
f 218/3/3 222/3/3 217/3/3
f 219/3/3 221/3/3 218/3/3
f 221/3/3 222/3/3 218/3/3
f 219/3/3 220/3/3 221/3/3
o MeshCollider_of_Text_002
v 115.800003 59.400005 0.000003
v 72.399994 0.000000 0.000000
v 133.899994 0.000000 0.000000
v 133.899994 8.800001 0.000000
v 90.500000 8.800001 0.000000
v 133.899994 68.200005 0.000003
v 75.099998 68.200005 0.000003
v 75.099998 59.400005 0.000003
v 68.700005 68.200005 0.000003
v 56.900002 68.200005 0.000003
v 35.600002 42.200001 0.000002
v 14.200001 68.200005 0.000003
v 2.300000 68.200005 0.000003
v 29.600000 35.300003 0.000002
v 0.200000 0.000000 0.000000
v 12.100000 0.000000 0.000000
v 35.600002 28.200001 0.000001
v 58.799999 0.000000 0.000000
v 70.600006 0.000000 0.000000
v 41.500004 35.300003 0.000002
vn -0.0000 -0.0000 1.0000
vt 0.087648 0.083711
s 0
usemtl Material.001
f 230/4/4 228/4/4 229/4/4
f 230/4/4 223/4/4 228/4/4
f 223/4/4 227/4/4 228/4/4
f 224/4/4 227/4/4 223/4/4
f 224/4/4 226/4/4 227/4/4
f 224/4/4 225/4/4 226/4/4
f 236/4/4 234/4/4 235/4/4
f 236/4/4 233/4/4 234/4/4
f 233/4/4 231/4/4 232/4/4
f 233/4/4 242/4/4 231/4/4
f 236/4/4 242/4/4 233/4/4
f 237/4/4 242/4/4 236/4/4
f 237/4/4 239/4/4 242/4/4
f 239/4/4 241/4/4 242/4/4
f 237/4/4 238/4/4 239/4/4
f 240/4/4 241/4/4 239/4/4
